<?xml version="1.0" encoding="UTF-8"?>
<svg version="1.1" xmlns="http://www.w3.org/2000/svg" width="256" height="256">
<path d="M0 0 C2.88549739 0.00848961 5.7689947 -0.02030883 8.65429688 -0.05200195 C26.18324216 -0.11884505 41.14359813 3.29232846 57.15429688 10.44604492 C58.19199219 10.90881836 59.2296875 11.3715918 60.29882812 11.84838867 C89.64025793 25.73076896 113.29970087 51.79361555 124.59179688 82.20385742 C125.89748735 85.91979976 127.10100967 89.65079261 128.15429688 93.44604492 C128.54597046 94.73019287 128.54597046 94.73019287 128.94555664 96.0402832 C131.59628948 105.75045214 131.64511362 115.283133 131.6003418 125.29174805 C131.59185219 128.17724543 131.62065063 131.06074275 131.65234375 133.94604492 C131.71918685 151.47499021 128.30801333 166.43534618 121.15429688 182.44604492 C120.46013672 184.00258789 120.46013672 184.00258789 119.75195312 185.59057617 C105.86957284 214.93200597 79.80672625 238.59144892 49.39648438 249.88354492 C45.68054204 251.1892354 41.94954919 252.39275772 38.15429688 253.44604492 C37.29819824 253.70716064 36.44209961 253.96827637 35.56005859 254.23730469 C25.84988966 256.88803752 16.3172088 256.93686167 6.30859375 256.89208984 C3.42309636 256.88360023 0.53959905 256.91239868 -2.34570312 256.9440918 C-19.87464841 257.01093489 -34.83500438 253.59976138 -50.84570312 246.44604492 C-52.40224609 245.75188477 -52.40224609 245.75188477 -53.99023438 245.04370117 C-83.33166418 231.16132089 -106.99110712 205.09847429 -118.28320312 174.68823242 C-119.5888936 170.97229009 -120.79241592 167.24129724 -121.84570312 163.44604492 C-122.10681885 162.58994629 -122.36793457 161.73384766 -122.63696289 160.85180664 C-125.28769573 151.14163771 -125.33651987 141.60895685 -125.29174805 131.6003418 C-125.28325844 128.71484441 -125.31205688 125.8313471 -125.34375 122.94604492 C-125.4105931 105.41709963 -121.99941958 90.45674366 -114.84570312 74.44604492 C-114.38292969 73.40834961 -113.92015625 72.3706543 -113.44335938 71.30151367 C-99.56097909 41.96008387 -73.4981325 18.30064092 -43.08789062 7.00854492 C-39.37194829 5.70285445 -35.64095544 4.49933213 -31.84570312 3.44604492 C-30.98960449 3.1849292 -30.13350586 2.92381348 -29.25146484 2.65478516 C-19.54129591 0.00405232 -10.00861505 -0.04477183 0 0 Z M-79.48632812 56.87963867 C-99.0977329 79.47783785 -107.89890431 108.85019134 -105.84570312 138.44604492 C-102.98625667 167.403321 -88.71961379 193.46319976 -66.84570312 212.44604492 C-43.20603134 231.12138563 -14.62090657 240.18876516 15.45361328 237.21899414 C44.74973103 233.56583849 71.3337835 218.47201123 89.62304688 195.32104492 C107.25918073 170.67877569 115.80185995 142.0248731 111.33007812 111.75854492 C106.40827552 82.96864581 90.68575895 56.76084131 66.84179688 39.69604492 C19.08976467 8.27873649 -40.55061775 14.20010999 -79.48632812 56.87963867 Z " fill="#F5F5F5" transform="translate(124.845703125,-0.446044921875)"/>
<path d="M0 0 C2.3181362 1.89111111 3.66914015 3.33828031 5 6 C5.56284766 11.85361563 4.48036048 14.35738416 1 19 C-1.08686799 21.32594967 -3.28707747 23.52126043 -5.515625 25.7109375 C-6.13145447 26.32393707 -6.74728394 26.93693665 -7.3817749 27.56851196 C-9.33317081 29.50878977 -11.29143354 31.44196331 -13.25 33.375 C-14.58119051 34.6961499 -15.91192451 36.01775994 -17.2421875 37.33984375 C-20.48953538 40.56524241 -23.7430568 43.78429196 -27 47 C-25.21261162 47.00546844 -25.21261162 47.00546844 -23.38911438 47.01104736 C-12.16208956 47.04798092 -0.93533944 47.1057358 10.29147625 47.18390274 C16.06338835 47.22341989 21.83514692 47.25558768 27.60717773 47.27099609 C33.17703542 47.28613459 38.74647112 47.32053061 44.31614113 47.36830902 C46.44157049 47.38315173 48.5670601 47.39104266 50.69254112 47.39188385 C53.66877666 47.39424652 56.64383937 47.42127031 59.61987305 47.45410156 C60.93941483 47.44655602 60.93941483 47.44655602 62.28561401 47.43885803 C66.38409344 47.5088545 68.48140851 47.67257542 72.02375793 49.90911865 C75.09482336 53.15833267 75.33362274 55.48899835 75.29296875 59.9609375 C74.83745033 63.13134567 73.24684343 64.8192402 71 67 C67.59611074 68.70194463 63.70730593 68.18110512 59.96044922 68.20532227 C59.02381439 68.21522186 58.08717957 68.22512146 57.12216187 68.23532104 C54.01636307 68.26698922 50.91054896 68.29171448 47.8046875 68.31640625 C45.65519811 68.33697119 43.50571281 68.35796753 41.35623169 68.37937927 C35.69109399 68.4346475 30.02591951 68.48403581 24.36071777 68.53222656 C18.58289302 68.58240694 12.80512187 68.63811106 7.02734375 68.69335938 C-4.31505841 68.80099904 -15.65750705 68.90243109 -27 69 C-26.10168457 69.8878418 -25.20336914 70.77568359 -24.27783203 71.69042969 C-20.94430384 74.98774046 -17.61741308 78.29167993 -14.29248047 81.59765625 C-12.8528759 83.02720726 -11.41148085 84.45495757 -9.96826172 85.88085938 C-7.89336666 87.93147831 -5.8250101 89.98850018 -3.7578125 92.046875 C-3.11192169 92.68244324 -2.46603088 93.31801147 -1.80056763 93.97283936 C-1.20009613 94.57315979 -0.59962463 95.17348022 0.01904297 95.79199219 C0.54754852 96.31605652 1.07605408 96.84012085 1.62057495 97.38006592 C4.68607294 100.98004743 5.5173253 104.26335258 5.375 109.03125 C4.69896003 112.58045986 2.86892259 113.9856501 0 116 C-3.96530106 117.15354213 -6.06834518 117.38620482 -9.90093994 115.79745483 C-13.16112152 113.90654952 -15.4821078 111.89860143 -18.14746094 109.24072266 C-18.62304947 108.77039108 -19.098638 108.30005951 -19.58863831 107.81547546 C-21.14480398 106.27241891 -22.68984761 104.71876176 -24.234375 103.1640625 C-25.31916284 102.08129767 -26.40439551 100.99897833 -27.49005127 99.91708374 C-29.75755366 97.6539921 -32.01957188 95.38559435 -34.27783203 93.11328125 C-37.16834801 90.20565379 -40.07215237 87.31173077 -42.98019028 84.4216404 C-45.22128642 82.19139831 -47.45517157 79.95404347 -49.68695831 77.71448898 C-50.75484487 76.64460597 -51.82495124 75.57693376 -52.89733124 74.51155472 C-54.39565177 73.02087752 -55.8839796 71.52087687 -57.37011719 70.01806641 C-58.21805847 69.16773834 -59.06599976 68.31741028 -59.93963623 67.4413147 C-62.91282065 63.91840339 -63.97578375 61.28346147 -64.0625 56.6875 C-61.53096665 47.90159012 -52.16309774 40.98935547 -45.8671875 34.6640625 C-45.39441502 34.18846264 -44.92164253 33.71286278 -44.43454361 33.2228508 C-41.94161623 30.71506849 -39.44593566 28.21006729 -36.94775391 25.70751953 C-34.37775668 23.13199939 -31.81720106 20.54729714 -29.25863457 17.96042824 C-27.27678303 15.95994423 -25.28824657 13.96620835 -23.29782486 11.97425461 C-21.89225305 10.56420785 -20.49377014 9.14710609 -19.09542847 7.72988892 C-18.23748688 6.87494843 -17.37954529 6.02000793 -16.49560547 5.13916016 C-15.74616669 4.38607574 -14.99672791 3.63299133 -14.22457886 2.85708618 C-9.55471233 -1.04133467 -5.86394618 -1.49264085 0 0 Z " fill="#F0F0F0" transform="translate(122,70)"/>
<path d="M0 0 C0.66 0.33 1.32 0.66 2 1 C-4.27 7.27 -10.54 13.54 -17 20 C-17.66 19.67 -18.32 19.34 -19 19 C-12.98348207 12.26459665 -7.02537494 5.71692402 0 0 Z " fill="#C0C0C0" transform="translate(46,27)"/>
</svg>
