<?xml version="1.0" encoding="UTF-8"?>
<svg version="1.1" xmlns="http://www.w3.org/2000/svg" width="225" height="225">
<path d="M0 0 C74.25 0 148.5 0 225 0 C225 74.25 225 148.5 225 225 C150.75 225 76.5 225 0 225 C0 150.75 0 76.5 0 0 Z " fill="#000000" transform="translate(0,0)"/>
<path d="M0 0 C2.69990662 1.79993774 4.5418865 3.083773 6 6 C6.56741709 9.54635678 6.68629965 11.97055052 4.6484375 15.02734375 C2.83541307 17.10792905 0.96427027 19.06109853 -1 21 C-2.04474101 22.04290474 -3.08881192 23.08648106 -4.13232422 24.13061523 C-4.67009491 24.66863266 -5.2078656 25.20665009 -5.76193237 25.76097107 C-6.17049469 26.16985062 -6.57905701 26.57873016 -7 27 C-5.19366089 27.01401855 -5.19366089 27.01401855 -3.35083008 27.02832031 C1.17654544 27.0686121 5.70326902 27.13447375 10.23022461 27.20751953 C12.1783807 27.23550427 14.1266456 27.25682899 16.07495117 27.27099609 C33.44173811 27.40475825 47.33902953 29.03137656 60.6875 41.1875 C69.10951308 50.05999285 72.58208326 61.00890936 72.3125 73.0390625 C71.32163336 82.42752391 67.92634909 90.69609761 62 98 C61.49855469 98.62519531 60.99710937 99.25039062 60.48046875 99.89453125 C53.48409526 107.70799945 42.77506188 112.39756863 32.3815918 113.20288086 C29.52221009 113.30287319 26.67352621 113.32210721 23.8125 113.3125 C22.84119141 113.32861328 21.86988281 113.34472656 20.86914062 113.36132812 C12.02766026 113.36738808 12.02766026 113.36738808 8 110 C5.67597049 106.79062591 5.52429309 103.88493979 6 100 C7.79993774 97.30009338 9.083773 95.4581135 12 94 C13.6460958 93.8944158 15.29596103 93.84469204 16.9453125 93.82421875 C17.94046875 93.80037109 18.935625 93.77652344 19.9609375 93.75195312 C22.04667637 93.70946585 24.13267196 93.67795765 26.21875 93.65820312 C34.21843441 93.43713215 39.49333552 91.7893922 45.75 86.8125 C50.47667773 80.90415284 52.69845347 75.03378513 52.40234375 67.4296875 C51.85710869 64.13710297 50.64321582 61.55949956 48.97265625 58.69140625 C48 57 48 57 47 54 C45.14666957 52.88865492 45.14666957 52.88865492 43 52 C42.40924683 51.65132874 41.81849365 51.30265747 41.20983887 50.94342041 C35.74700278 47.83842236 31.23473165 47.46340905 25.03125 47.609375 C24.11033569 47.61503479 23.18942139 47.62069458 22.24060059 47.62652588 C19.32651693 47.64874764 16.41370603 47.69891617 13.5 47.75 C11.51303871 47.7700834 9.52605796 47.78833094 7.5390625 47.8046875 C2.69222501 47.8485657 -2.15367242 47.91749311 -7 48 C-6.14535156 48.84304687 -5.29070312 49.68609375 -4.41015625 50.5546875 C-3.29413953 51.66132593 -2.17826128 52.76810402 -1.0625 53.875 C-0.49853516 54.43058594 0.06542969 54.98617187 0.64648438 55.55859375 C5.85403388 60.73496033 5.85403388 60.73496033 6.375 65.25 C5.88990832 70.10091677 4.69142249 71.84690996 1 75 C-2.46541697 75.73853148 -3.76964188 75.98083481 -7 75 C-14.12291257 70.1507048 -20.15710613 62.9960911 -26.22973633 56.90063477 C-27.95474713 55.17019863 -29.68512428 53.4452551 -31.41601562 51.72070312 C-32.51594633 50.62011271 -33.61556738 49.51921272 -34.71484375 48.41796875 C-35.48972389 47.64612495 -35.48972389 47.64612495 -36.28025818 46.85868835 C-40.85787889 42.25066576 -40.85787889 42.25066576 -41.3125 38.25 C-40.68420493 31.7157313 -35.56136748 27.26179887 -31.09765625 22.83203125 C-30.53807724 22.27053879 -29.97849823 21.70904633 -29.40196228 21.13053894 C-28.22526443 19.95248799 -27.04606875 18.77692718 -25.86450195 17.60375977 C-24.06420992 15.81419973 -22.27486683 14.01418883 -20.48632812 12.21289062 C-19.33657836 11.06446221 -18.18620847 9.91665423 -17.03515625 8.76953125 C-16.50479263 8.23511917 -15.97442902 7.70070709 -15.42799377 7.15010071 C-10.7116294 2.49235321 -6.88471061 -1.0040203 0 0 Z " fill="#FBFBFB" transform="translate(97,56)"/>
<path d="M0 0 C0.33 0 0.66 0 1 0 C1 34.98 1 69.96 1 106 C-33.98 106 -68.96 106 -105 106 C-105 105.67 -105 105.34 -105 105 C-104.05125 104.9484375 -103.1025 104.896875 -102.125 104.84375 C-78.05072545 103.03177267 -54.79552898 93.32352067 -37 77 C-36.5157959 76.56349121 -36.0315918 76.12698242 -35.53271484 75.67724609 C-13.97627193 56.05846097 -2.3300133 28.81858553 0 0 Z " fill="#FCFCFC" transform="translate(224,119)"/>
<path d="M0 0 C33.66 0 67.32 0 102 0 C102 34.98 102 69.96 102 106 C101.67 106 101.34 106 101 106 C100.90203125 105.01902344 100.8040625 104.03804688 100.703125 103.02734375 C97.81843431 76.16177272 87.88586445 53.40187168 69 34 C68.34386719 33.29359375 67.68773437 32.5871875 67.01171875 31.859375 C62.16274196 26.7674635 56.9257141 22.76865499 51 19 C49.98292969 18.3503125 48.96585938 17.700625 47.91796875 17.03125 C32.94517275 7.96739212 17.30447597 3.1708124 0 1 C0 0.67 0 0.34 0 0 Z " fill="#FCFCFC" transform="translate(123,0)"/>
<path d="M0 0 C0.33 0 0.66 0 1 0 C1.12375 1.05574219 1.2475 2.11148438 1.375 3.19921875 C5.3582501 33.13353161 20.50651774 59.59486395 44.09375 78.4765625 C62.45184491 91.69984374 83.34616711 99.65926295 106 101 C106 101.33 106 101.66 106 102 C71.02 102 36.04 102 0 102 C0 68.34 0 34.68 0 0 Z " fill="#FCFCFC" transform="translate(0,123)"/>
<path d="M0 0 C34.98 0 69.96 0 106 0 C106 0.33 106 0.66 106 1 C105.01902344 1.09796875 104.03804688 1.1959375 103.02734375 1.296875 C72.33955394 4.59197643 46.49343362 17.79116865 26 41 C11.71878919 58.83464594 5.05280137 78.83013398 1 101 C0.67 101 0.34 101 0 101 C0 67.67 0 34.34 0 0 Z " fill="#FCFCFC" transform="translate(0,0)"/>
</svg>
